<svg xmlns="http://www.w3.org/2000/svg" viewBox="0 0 117 221"><path d="M108.8 100.2L80.3 71.5l-.7-.7L46.8 38 32.4 52.3l21.1 21.1-46.3 46.2 28.6 28.6c.4.4.8.8 1.2 1.1L69.4 182l14.2-14.2-21.3-21.3 46.5-46.3zm-59.3 30.5c-.4.1-.8.1-1.3 0-.4-.1-.8-.3-1.5-1.1l-8.4-8.4c-.7-.7-1-1.1-1.1-1.5-.1-.4-.1-.8 0-1.3.1-.4.3-.8 1.1-1.5l26.4-26.4c.7-.7 1.1-1 1.5-1.1.4-.1.8-.1 1.3 0 .4.1.8.3 1.5 1.1l8.4 8.4c.7.7 1 1.1 1.1 1.5.1.4.1.8 0 1.3-.1.4-.3.8-1.1 1.5L51 129.6c-.7.8-1.1 1-1.5 1.1z" fill-rule="evenodd" clip-rule="evenodd" fill="#0b3be0"/><path d="M82.9 51c0-3.6 1.2-6.6 3.8-9.2 2.5-2.5 5.6-3.8 9.1-3.8 3.6 0 6.7 1.3 9.2 3.8 2.5 2.5 3.8 5.6 3.8 9.2 0 3.6-1.3 6.6-3.8 9.1s-5.6 3.8-9.2 3.8-6.6-1.2-9.1-3.8c-2.5-2.5-3.8-5.5-3.8-9.1zm2.2 0c0 3 1 5.6 3.1 7.7 2.1 2.1 4.6 3.2 7.7 3.2 3 0 5.6-1.1 7.6-3.2 2.1-2.1 3.2-4.7 3.2-7.7 0-3.1-1.1-5.6-3.2-7.7-2.1-2.1-4.6-3.2-7.6-3.2s-5.6 1.1-7.6 3.2c-2.1 2.1-3.2 4.6-3.2 7.7zm13.8 7.1l-3.5-6.2h-2.3v6.2H91V43.9h5.8c2.9 0 4.5 1.7 4.5 4 0 2-1.5 3.5-3.5 3.9l3.5 6.3h-2.4zm-5.8-12.3v4.3h3.3c1.8 0 2.8-.7 2.8-2.1 0-1.5-.9-2.2-2.8-2.2h-3.3z" fill-rule="evenodd" clip-rule="evenodd" fill="#1849d6"/></svg>